<?xml version="1.0" encoding="UTF-8"?>
<!DOCTYPE svg PUBLIC "-//W3C//DTD SVG 1.1//EN" "http://www.w3.org/Graphics/SVG/1.1/DTD/svg11.dtd">
<!-- Creator: CorelDRAW (Versión OEM) -->
<svg xmlns="http://www.w3.org/2000/svg" xml:space="preserve" width="254mm" height="254mm" version="1.1" style="shape-rendering:geometricPrecision; text-rendering:geometricPrecision; image-rendering:optimizeQuality; fill-rule:evenodd; clip-rule:evenodd"
viewBox="0 0 25400 25400"
 xmlns:xlink="http://www.w3.org/1999/xlink"
 xmlns:xodm="http://www.corel.com/coreldraw/odm/2003">
 <defs>
  <style type="text/css">
   <![CDATA[
    .str1 {stroke:#0DA0E2;stroke-width:26.45;stroke-miterlimit:22.9256}
    .str0 {stroke:#0DA0E2;stroke-width:105.83;stroke-miterlimit:22.9256}
    .fil1 {fill:none}
    .fil0 {fill:#0DA0E2}
    .fil2 {fill:#3390D1}
    .fil3 {fill:#7432E6}
    .fil4 {fill:#0DA0E2;fill-rule:nonzero}
   ]]>
  </style>
 </defs>
 <g id="Capa_x0020_1">
  <metadata id="CorelCorpID_0Corel-Layer"/>
  <path class="fil0" d="M24126.51 7872.58c-624.39,-1477.13 -1518.86,-2803.09 -2657.43,-3941.63 -1138.55,-1138.55 -2465.28,-2033 -3941.61,-2657.41 -1529.11,-647.23 -3153.48,-974.8 -4827.44,-974.8 -1673.96,0 -3298.33,327.57 -4827.44,974.76 -1477.13,624.39 -2803.08,1518.86 -3941.61,2657.43 -1138.53,1138.56 -2033.04,2465.31 -2657.43,3941.65 -647.22,1529.09 -974.8,3153.47 -974.8,4827.43 0,1673.95 327.58,3298.33 974.78,4827.43 624.37,1477.13 1518.86,2803.1 2657.41,3941.63 1138.57,1138.53 2465.3,2033.01 3941.63,2657.41 1529.09,646.43 3152.66,974.78 4827.43,974.78 1674.77,0 3298.34,-327.58 4827.43,-974.78 1477.13,-624.38 2803.1,-1518.86 3941.63,-2657.41 1138.55,-1138.57 2033,-2465.3 2657.41,-3941.63 646.43,-1529.1 974.76,-3152.66 974.76,-4827.43 0,-1674.76 -327.5,-3298.34 -974.72,-4827.43zm710.23 3092.82l0 0c47.25,333.84 -403.16,485.82 -568.49,192.91 -387.41,-685.03 -735.42,-1370.07 -1006.29,-2067.68 -85.83,-221.27 -177.95,-478.74 -186.62,-738.58 -9.45,-272.44 79.52,-514.14 242.51,-662.96 12.6,-11.83 26.78,-22.84 42.53,-33.07 209.45,-138.6 494.48,-47.25 594.47,183.47 424.4,981.88 725.99,2030.68 881.89,3125.91zm-6670.7 -3321.95l0 0c119.69,1390.52 425.98,2847.98 911,4330.62 55.11,169.29 114.14,342.49 170.07,509.45 349.61,1032.25 711.01,2099.92 617.29,3179.44 -104.73,1207.07 -813.35,2347.18 -1848.76,2976.32 -1057.48,641.74 -2341.68,733.07 -3582.59,822.04 -1119.66,79.52 -2277.11,162.2 -3295.97,640.15 -710.22,333.08 -1128.32,695.28 -1599.18,1385.01 -116.53,170.85 -231.49,363.77 -352.74,568.49 -283.45,477.15 -589.74,993.67 -985,1329.1 -355.13,302.36 -861.39,349.63 -1272.42,129.94 -415.74,-222.85 -817.31,-468.5 -1202.34,-736.22 -35.45,-24.4 -18.12,-81.1 25.2,-81.1l1.58 -0.08c555.9,0 1110.21,-300.78 1478.71,-671.64 465.35,-468.51 751.16,-1077.92 1026.76,-1667.69 22.83,-48.8 45.69,-97.63 68.51,-145.67 292.11,-619.67 622.84,-1260.59 1174.77,-1681.07 804.69,-613.36 1886.57,-628.34 2933,-643.28 122.04,-1.58 248.81,-3.16 371.63,-6.3 806.26,-18.13 1617.26,-95.26 2412.52,-230.71 762.19,-129.91 1608.61,-349.61 2103.1,-1000.77 611.79,-803.91 429.89,-1944.83 203.13,-2848.73 -134.64,-537.79 -288.2,-1079.5 -436.21,-1603.9 -238.58,-844.06 -485.02,-1716.49 -660.63,-2589.69 -333.84,-1658.23 -344.08,-3054.27 -32.29,-4269.98 231.5,-901.57 626.77,-1539.34 1176.36,-1896.8 581.88,-378.73 1418.06,-420.47 2231.43,-382.68 329.93,14.96 644.1,141.75 894.49,356.7 3.15,2.35 6.3,4.72 8.65,7.87 134.63,116.54 47.27,336.23 -130.69,329.93 -2.36,0 -4.73,0 -6.31,0 -390.54,-11.83 -788.96,73.22 -1092.12,233.83 -562.98,299.21 -1001.55,891.34 -1202.33,1624.39 -190.51,691.35 -162.15,1415.72 -108.62,2033.03zm-4907.76 -7189.58l0 0c279.52,12.6 555.9,34.64 830.7,65.35 139.36,15.74 144.86,216.53 7.08,240.94 -1388.15,244.88 -2845.58,648.81 -4093.58,1454.31 -724.42,467.69 -1231.47,1001.55 -1506.27,1585 -338.58,718.87 -344.09,1527.53 -349.61,2309.39 -3.16,463 -7.09,940.94 -78.75,1396.04 -226.77,1426.75 -1213.34,2784.19 -2574.75,3540.86 -249.6,138.58 -514.96,261.39 -771.63,379.51 -238.58,110.24 -485.02,223.62 -720.45,351.17 -796.83,431.48 -1516.5,1048.79 -2081.83,1784.97 -343.31,447.24 -624.38,933.06 -833.06,1436.96 -87.4,210.22 -395.27,177.17 -436.99,-45.67 -0.76,-3.93 -1.58,-7.08 -2.35,-11.01 -34.63,-186.62 -37.78,-377.18 -5.51,-564.56 185.83,-1073.21 831.48,-2070.02 1736.2,-2654.27 465.35,-300.76 1007.05,-511.8 1532.24,-716.51 868.5,-338.56 1766.11,-688.96 2319.62,-1451.15 583.46,-803.15 611.03,-1820.44 638.59,-2804.67 15.74,-560.6 31.47,-1140.13 148.81,-1677.92 265.35,-1217.3 1125.18,-2388.12 2358.23,-3212.51 673.22,-450.38 1463.73,-818.1 2439.31,-1131.49 148.83,-48.03 383.44,-115.73 586.58,-173.22 277.93,-79.49 567.66,-114.91 857.42,-101.52zm-3134.57 259.84l0 0c285.8,-61.43 422.83,337.8 159.83,464.53 -356.69,172.43 -684.22,359.05 -988.96,562.99 -596.05,398.43 -1125.94,892.1 -1531.44,1426.75 -445.65,587.39 -744.07,1218.09 -887.39,1873.97 -120.46,551.18 -136.2,1137.77 -151.96,1704.69 -27.54,1006.27 -53.53,1957.42 -611.01,2725.12 -529.12,728.32 -1368.49,1055.89 -2256.66,1402.32 -530.68,207.08 -1080.29,421.23 -1557.45,729.89 -509.45,329.15 -949.59,788.18 -1271.62,1327.54 -16.53,27.54 -33.05,55.91 -48.8,83.47 -144.09,255.13 -533.84,156.69 -537.77,-137.02 -0.78,-59.04 -1.58,-118.89 -1.58,-177.95 2.37,-5876.25 4158.17,-10799.75 9684.81,-11986.3zm-9106.85 15703.54l0 0c-78.76,-247.24 -85.84,-513.38 -12.6,-762.2 451.96,-1546.41 1596.02,-2958.96 3063.7,-3752.64 231.5,-125.2 476.36,-238.58 712.59,-347.24 259.04,-119.69 526.76,-243.31 781.08,-384.25 677.96,-377.16 1279.51,-905.48 1740.12,-1527.52 475.58,-642.5 788.96,-1373.98 906.3,-2115.71 74.01,-465.35 77.16,-949.59 81.09,-1417.28 5.51,-801.57 11.01,-1559.04 336.21,-2250.35 262.99,-559.03 752.74,-1073.21 1455.1,-1525.94 1384.98,-894.46 3039.28,-1286.58 4563.66,-1519.65 461.42,-70.09 933.05,-41.73 1382.65,85.05 51.95,14.98 103.15,29.91 155.11,44.87 338.56,100.8 311.82,588.17 -36.22,649.6 -498.42,87.4 -994.46,196.86 -1483.45,328.33 -1021.22,273.22 -2020.4,641.72 -2969.2,1093.68 -732.25,348.81 -1554.3,804.69 -2101.5,1540.92 -486.59,654.31 -766.9,1684.99 -295.27,2514.9 252.74,444.86 673.2,751.96 1080.29,1049.57 88.18,64.58 179.53,131.52 266.9,197.63 619.69,472.44 929.89,934.62 947.22,1412.56 15.74,427.55 -219.69,870.84 -629.11,1185.01 -392.92,301.59 -881.87,452.77 -1307.84,559.84 -598.39,151.18 -1221.23,251.98 -1822.78,350.39 -782.68,127.54 -1591.3,259.06 -2361.37,501.57 -1242.5,391.31 -2283.42,1047.99 -3010.97,1897.58 -400.77,468.5 -719.66,1011.02 -922.03,1569.24 -74.81,206.29 -133.05,411.82 -174.81,615.73 -36.22,176.37 -284.23,188.19 -338.56,17.32 -3.93,-3.16 -4.74,-7.08 -6.31,-11.01zm798.41 1918.03l0 0c-367.72,-707.07 -446.46,-1531.44 -211.03,-2292.86 187.4,-607.06 514.95,-1202.33 961.4,-1723.57 710.21,-829.9 1728.31,-1470.83 2945.61,-1854.26 760.63,-239.35 1564.55,-370.05 2341.68,-496.84 604.7,-98.41 1229.89,-199.97 1834.6,-352.73 440.14,-111.03 946.44,-267.72 1359.82,-585.03 446.45,-342.5 702.36,-829.91 685.03,-1303.14 -18.89,-523.61 -347.23,-1021.22 -1003.13,-1520.44 -88.18,-67.69 -180.3,-134.62 -269.29,-199.21 -394.49,-288.18 -802.34,-585.81 -1040.11,-1004.69 -439.38,-774.02 -173.24,-1742.48 285.81,-2359.8 529.12,-711.01 1332.25,-1155.88 2048.77,-1496.81 1596.02,-761.39 3283.36,-1266.1 5027.42,-1507.03 645.66,-88.99 1303.12,31.47 1872.4,348.8 7.88,4.74 15.74,8.67 23.61,13.4 426.76,239.35 312.6,887.38 -170.84,962.97 -374.78,59.04 -722.82,168.5 -1014.14,358.27 -580.31,377.17 -996.04,1044.09 -1236.19,1981.06 -317.33,1236.2 -307.1,2653.48 30.71,4332.95 176.37,877.93 423.61,1753.51 662.97,2599.92 148.03,522.81 300.78,1064.55 434.63,1599.95 218.88,873.2 396.84,1972.38 -177.95,2728.27 -465.35,611.01 -1279.51,821.24 -2014.12,946.44 -788.18,133.85 -1592.86,211.02 -2392.05,228.35 -122.03,2.35 -248,4.73 -370.04,6.3 -1069.26,14.96 -2174.76,29.9 -3017.25,672.42 -577.14,440.14 -918.08,1097.6 -1217.3,1733.02 -22.83,48.81 -45.69,97.65 -68.5,145.68 -270.87,578.72 -550.38,1176.35 -998.4,1627.5 -11.01,11.01 -22.06,22.06 -33.86,33.07 -649.59,625.95 -1673.2,643.28 -2357.43,56.68 -1195.31,-1023.57 -2191.35,-2271.57 -2922.83,-3678.64zm6508.51 5816.4l0 0c-255.13,-97.63 -311.01,-436.98 -96.07,-605.48 443.29,-348.03 774.79,-905.48 1079.49,-1419.63 120.47,-202.36 233.86,-393.69 348.04,-560.61 454.3,-666.14 858.26,-1015.71 1541.68,-1336.96 995.24,-466.13 2139.3,-548.03 3246.38,-626.77 1258.22,-89.75 2559.78,-181.89 3646.37,-841.7 1073.99,-651.98 1807.82,-1833.81 1916.5,-3084.97 96.07,-1109.43 -270.05,-2191.3 -624.37,-3237.73 -56.69,-166.92 -114.97,-339.36 -170.07,-507.86 -481.09,-1472.4 -785.81,-2918.84 -904.72,-4298.32 -51.96,-604.71 -80.32,-1313.37 102.38,-1981.86 190.53,-695.26 603.13,-1255.86 1131.46,-1536.17 563.77,-299.21 1366.92,-288.96 1871.61,7.08 54.33,32.29 103.95,72.44 148.01,118.11 2.35,3.15 5.51,5.51 7.9,8.66 264.55,277.95 105.48,735.42 -274.03,791.33 -3.15,0.78 -5.5,0.78 -8.67,1.58 -416.51,63 -733.05,235.42 -942.49,511.8 -259.84,343.31 -303.14,802.34 -311.82,1206.26 -48.03,2351.14 740.91,4623.51 1504.68,6821.1 296.86,854.3 603.94,1738.55 856.69,2613.31 230.69,799.19 398.41,1635.41 61.42,2340.9 -409.44,857.46 -1401.54,1229.1 -2412.54,1502.34 -1585,428.34 -3210.94,780.3 -4831.35,1044.85 -1214.16,198.43 -2724.35,444.87 -3466.06,1561.38 -153.54,231.5 -263.79,488.99 -370.87,737.76 -119.69,278.73 -243.31,566.93 -425.19,808.66 -20.48,27.56 -42.54,53.53 -65.35,78.75 -283.46,312.59 -720.46,436.98 -1129.92,335.41 -488.19,-122.88 -965.33,-273.24 -1429.09,-451.22zm5435.25 761.4l0 0c-377.93,32.29 -624.37,-391.34 -404.71,-699.96 307.08,-431.49 717.31,-788.96 1193.67,-1028.34 581.89,-292.93 1245.63,-407.85 1887.36,-518.11 132.29,-22.83 268.5,-46.45 402.35,-70.86 1337.78,-247.23 2637.71,-662.97 3869.19,-1236.98 1.57,-0.77 3.15,-1.58 4.73,-2.35 242.5,-114.96 456.69,203.14 259.06,385.04 -1937.76,1773.17 -4444.76,2933.78 -7211.65,3171.56zm9369.88 -5775.44l0 0c-493.67,797.6 -1196.03,1446.42 -2031.46,1873.16 -13.39,7.08 -25.97,13.4 -39.37,19.68 -1341.69,672.4 -2770.8,1151.95 -4246.35,1425.16 -133.06,24.41 -269.3,48.04 -400.77,70.86 -651.98,112.61 -1325.96,228.35 -1926.75,531.47 -553.51,278.73 -1022.01,710.22 -1351.94,1231.47 -265.33,419.68 -736.19,662.99 -1232.22,637.78 -155.12,-7.88 -300.79,-17.33 -410.24,-27.56 -59.05,-5.51 -118.88,-11.81 -177.95,-18.89 -290.54,-33.07 -431.49,-370.06 -253.56,-602.36 1.57,-2.35 3.15,-4.74 4.73,-6.32 192.13,-255.89 319.67,-551.95 442.53,-837.78 104.71,-243.31 212.59,-494.47 358.27,-714.94 707.08,-1065.32 2184.17,-1306.25 3369.99,-1499.95 1625.94,-265.34 3255.83,-618.11 4845.57,-1048 425.97,-114.97 974.76,-280.31 1444.84,-536.22 510.23,-277.95 856.69,-618.86 1059.01,-1042.5 357.47,-748.8 185.83,-1616.48 -52.75,-2441.66 -253.56,-878.72 -561.41,-1763.74 -859.05,-2620.39 -759.04,-2185.76 -1544.05,-4446.34 -1496.8,-6771.49 7.9,-399.99 48.03,-813.35 282.68,-1122.81 359.05,-474.79 1060.61,-511.8 1596.84,-454.31 230.68,24.39 438.55,148.01 574.79,335.42 0.78,0.77 1.58,2.35 2.35,3.14 168.5,232.28 73.24,564.57 -195.27,666.92 -145.68,55.11 -273.23,133.05 -384.26,234.65 -471.66,431.47 -475.59,1147.99 -426.74,1724.37 118.11,1387.39 1236.97,4266.84 2016.48,6117.16 3.17,7.9 6.32,14.98 9.47,22.84 597.63,1415.7 509.45,3028.28 -240.15,4369.97 -89.82,163.03 -184.31,322.87 -281.92,481.13zm1692.08 -4598.3l0 0c-67.7,448.8 -680.3,529.9 -859.82,112.61 -2.36,-5.5 -4.75,-11.01 -7.09,-16.55 -770.06,-1793.66 -2060.57,-5017.21 -2186.56,-6499.83 -46.46,-544.09 -44.88,-1218.09 381.08,-1607.85 7.9,-7.08 16.55,-14.96 24.42,-22.04 388.18,-332.28 985.8,-214.19 1235.4,232.26 18.88,33.86 37.79,67.71 56.68,101.58 131.51,240.93 55.93,544.85 -175.57,692.1 -24.42,15.74 -47.26,33.07 -68.52,51.96 -194.48,177.17 -299.19,458.27 -288.96,772.44 9.46,282.68 106.31,553.53 196.06,785.79 339.38,875.58 799.19,1729.11 1303.91,2585.76 372.44,632.27 539.35,1365.31 475.57,2095.99 -0.76,7.9 -1.58,16.56 -2.34,24.42 -21.28,232.29 -49.62,462.22 -84.26,691.36z"/>
  <g id="_2550384736768">
   <path class="fil1 str0" d="M12700 22975.65c5659.63,0 10275.66,-4616.03 10275.66,-10275.66 0,-5659.63 -4616.03,-10275.66 -10275.66,-10275.66 -5659.63,0 -10275.66,4616.03 -10275.66,10275.66 0,5659.63 4616.03,10275.66 10275.66,10275.66z"/>
   <path class="fil1 str0" d="M12700 21657.82c4933.8,0 8957.84,-4024.03 8957.84,-8957.83 0,-4933.8 -4024.04,-8957.85 -8957.84,-8957.85 -4933.79,0 -8957.83,4024.05 -8957.83,8957.85 0,4933.8 4024.04,8957.83 8957.83,8957.83z"/>
   <path class="fil1 str0" d="M12700 20212.97c4138,0 7512.98,-3374.98 7512.98,-7512.98 0,-4138 -3374.98,-7512.98 -7512.98,-7512.98 -4137.99,0 -7512.98,3374.98 -7512.98,7512.98 0,4138 3374.99,7512.98 7512.98,7512.98z"/>
   <path class="fil1 str0" d="M12700 18868.22c3397.34,0 6168.23,-2770.89 6168.23,-6168.23 0,-3397.34 -2770.89,-6168.23 -6168.23,-6168.23 -3397.34,0 -6168.23,2770.89 -6168.23,6168.23 0,3397.34 2770.89,6168.23 6168.23,6168.23z"/>
   <path class="fil1 str0" d="M12700 17442.81c2612.25,0 4742.82,-2130.58 4742.82,-4742.82 0,-2612.26 -2130.57,-4742.82 -4742.82,-4742.82 -2612.24,0 -4742.81,2130.56 -4742.81,4742.82 0,2612.24 2130.57,4742.82 4742.81,4742.82z"/>
   <path class="fil1 str0" d="M12700 16130.65c1889.54,0 3430.66,-1541.12 3430.66,-3430.65 0,-1889.54 -1541.12,-3430.66 -3430.66,-3430.66 -1889.53,0 -3430.65,1541.12 -3430.65,3430.66 0,1889.53 1541.12,3430.65 3430.65,3430.65z"/>
   <path class="fil1 str0" d="M12700 14654.8c1076.68,0 1954.81,-878.13 1954.81,-1954.8 0,-1076.68 -878.13,-1954.81 -1954.81,-1954.81 -1076.67,0 -1954.8,878.13 -1954.8,1954.81 0,1076.67 878.13,1954.8 1954.8,1954.8z"/>
   <path class="fil2 str1" d="M12700.01 13347.23c-356.7,0 -647.24,-290.54 -647.24,-647.23 0,-356.7 290.54,-647.24 647.24,-647.24 356.69,0 647.23,290.54 647.23,647.24 -0.8,356.69 -290.54,647.23 -647.23,647.23zm0 -1214.95l0 0c-313.36,0 -568.49,255.13 -568.49,568.48 0,313.38 255.13,568.49 568.49,568.49 313.35,0 568.49,-255.11 568.49,-568.49 -0.78,-314.12 -255.1,-568.48 -568.49,-568.48z"/>
  </g>
  <g id="_2550384735568">
   <path class="fil3" d="M12366.11 23163.53c-107.07,-3.16 -191.31,-92.14 -188.18,-198.44 3.15,-107.06 92.12,-190.54 198.43,-188.2 106.3,3.17 190.55,92.15 188.2,198.45 -3.16,104.71 -88.99,188.19 -192.91,188.19 -1.57,0 -3.15,0 -5.54,0z"/>
   <g>
    <path class="fil3" d="M10414.98 22925.72c-103.95,-22.82 -170.08,-125.97 -147.25,-229.91 22.82,-103.95 125.98,-170.86 229.92,-148.03 103.94,22.82 170.08,125.98 147.24,229.93 -19.67,90.54 -99.98,151.94 -188.96,151.94 -12.6,0.81 -26.76,-0.78 -40.95,-3.93z"/>
    <path class="fil3" d="M8542.61 22326.55c-98.41,-41.72 -144.1,-155.91 -101.56,-253.56 41.72,-98.4 155.91,-144.08 253.54,-101.55 97.65,41.72 143.3,155.9 101.58,253.54 -31.5,73.23 -102.38,117.31 -177.98,117.31 -25.2,0 -50.41,-5.5 -75.58,-15.74z"/>
    <path class="fil3" d="M17742.36 21632.06c-54.33,-92.13 -24.39,-210.22 66.94,-265.33 92.14,-54.35 210.21,-24.42 265.34,66.92 54.33,92.14 24.4,210.21 -66.93,265.34 -30.71,18.89 -65.36,27.55 -98.43,27.55 -66.92,0 -130.7,-33.06 -166.92,-94.48z"/>
    <path class="fil3" d="M6815.86 21384.82c-88.19,-59.86 -111.8,-179.54 -51.97,-268.5 59.86,-88.18 179.54,-111.79 268.5,-51.95 88.17,59.85 111.81,179.54 51.95,268.49 -37.79,55.11 -98.4,85.05 -160.63,85.05 -36.96,0.78 -73.98,-10.23 -107.85,-33.09z"/>
    <path class="fil3" d="M5296.23 20138.41c-75.59,-75.59 -76.37,-197.63 -1.58,-273.23 75.59,-75.59 197.64,-76.36 273.21,-1.57 75.59,74.81 76.37,197.63 1.59,273.22 -37.79,37.8 -87.41,57.47 -137.02,57.47 -49.6,0 -98.4,-18.91 -136.2,-55.89z"/>
    <path class="fil3" d="M20026.54 19862.83c-77.94,-73.24 -81.89,-195.28 -8.65,-273.22 73.23,-77.93 195.27,-81.9 273.22,-8.66 77.94,73.24 81.89,195.28 8.66,273.23 -37.8,40.14 -89.75,61.42 -140.95,61.42 -47.22,-0.81 -94.49,-18.12 -132.28,-52.77z"/>
    <path class="fil3" d="M4034.84 18630.56c-60.61,-88.17 -38.56,-207.86 49.62,-268.49 88.18,-60.62 208.64,-38.56 268.48,49.62 60.63,88.17 37.79,208.64 -49.6,268.47 -33.87,22.84 -71.66,33.87 -109.46,33.87 -61.43,0.78 -122.04,-29.12 -159.04,-83.47z"/>
    <path class="fil3" d="M21237.55 18358.91c-90.57,-57.46 -117.32,-176.37 -59.85,-266.9 57.45,-89.75 176.37,-116.54 266.9,-59.86 90.57,57.47 116.54,176.4 59.85,266.93 -37.01,58.25 -99.22,89.75 -163.77,89.75 -35.4,0.02 -71.62,-9.43 -103.13,-29.92z"/>
    <path class="fil3" d="M21731.24 17529.01c-95.25,-48.79 -133.05,-165.34 -84.25,-259.82 48.81,-95.26 164.57,-133.05 259.83,-85.05 95.27,48.81 133.07,164.57 84.26,259.82 -33.86,66.94 -101.58,105.51 -172.43,105.51 -29.13,0.8 -59.07,-6.28 -87.41,-20.46z"/>
    <path class="fil3" d="M3076.59 16914.07c-43.3,-97.63 1.58,-211.79 99.23,-255.13 97.63,-42.53 211.79,1.59 254.31,99.22 43.3,97.65 -0.77,211.8 -99.2,254.32 -25.21,11.01 -51.96,16.55 -77.94,16.55 -74.06,0.78 -144.9,-42.52 -176.4,-114.96z"/>
    <path class="fil3" d="M2458.5 15047.99c-23.63,-103.95 40.95,-207.88 144.86,-231.5 103.95,-23.63 207.87,40.95 231.5,145.66 23.64,103.95 -40.95,207.88 -145.67,231.5 -14.17,3.17 -29.13,4.73 -43.3,4.73 -87.41,-0.02 -166.92,-60.64 -187.39,-150.39z"/>
    <path class="fil3" d="M22716.26 14812.56c-104.73,-19.68 -174.02,-121.28 -153.54,-225.99 19.67,-104.73 121.27,-174 226,-153.54 104.71,19.67 173.99,121.27 154.33,226 -17.33,92.9 -98.41,157.48 -189.75,157.48 -12.65,-0.79 -24.46,-1.61 -37.04,-3.95z"/>
    <path class="fil3" d="M2902.57 9475.69c-100.8,-35.45 -153.53,-145.69 -118.13,-246.44 35.46,-100.81 145.68,-153.54 246.44,-118.12 100.8,35.45 153.53,145.68 118.13,246.44 -28.36,79.52 -102.38,129.12 -182.68,129.12 -21.23,-0.78 -42.49,-3.93 -63.76,-11z"/>
    <path class="fil3" d="M22101.3 9167.82c-37.79,-99.99 13.4,-211.02 113.38,-248.82 99.99,-37.79 211.03,13.39 248.82,113.39 37.79,99.98 -13.38,211.01 -113.37,248.81 -22.05,7.88 -45.69,12.59 -67.71,12.59 -77.96,0 -151.2,-48.03 -181.12,-125.97z"/>
    <path class="fil3" d="M3678.92 7708.01c-92.12,-53.55 -123.61,-171.66 -70.08,-264.57 53.53,-92.12 171.66,-123.61 264.57,-70.08 92.12,53.53 123.62,171.66 70.08,264.57 -36.22,61.41 -100.8,96.05 -166.92,96.05 -33.84,0 -67.71,-7.86 -97.65,-25.97z"/>
    <path class="fil3" d="M21273.75 7465.5c-55.91,-91.34 -26.77,-210.22 64.58,-265.34 91.33,-55.91 210.22,-26.78 266.15,64.58 55.92,91.33 26.78,210.22 -64.59,265.33 -31.49,18.91 -66.15,28.36 -99.98,28.36 -66.14,-0.02 -129.94,-33.09 -166.16,-92.93z"/>
    <path class="fil3" d="M20743.06 6680.48c-63.77,-85.82 -46.45,-207.09 39.37,-270.07 85.82,-63.77 207.09,-46.46 270.87,39.37 63.78,85.82 46.45,206.29 -39.37,270.07 -34.65,25.98 -75.59,38.57 -115.74,38.57 -59.06,-0.78 -117.34,-27.57 -155.13,-77.94z"/>
    <path class="fil3" d="M4771.84 6117.49c-80.32,-70.08 -88.99,-192.12 -19.67,-272.44 70.07,-80.32 192.12,-88.99 272.45,-19.67 80.32,70.07 88.98,192.11 19.67,272.43 -37.8,44.12 -92.15,66.16 -146.46,66.16 -44.12,0.77 -89.01,-14.96 -125.99,-46.48z"/>
    <path class="fil3" d="M6142.67 4758.48c-66.16,-83.49 -51.96,-205.53 31.49,-271.66 83.47,-66.15 205.51,-51.95 271.63,31.5 66.16,83.47 51.97,205.51 -31.47,271.63 -35.44,28.36 -77.95,41.72 -119.69,41.72 -57.48,0.04 -113.39,-25.17 -151.96,-73.19z"/>
    <path class="fil3" d="M17965.18 4130.93c-90.57,-56.68 -118.89,-175.57 -62.21,-266.14 56.71,-90.55 175.58,-118.88 266.15,-62.19 90.55,56.7 118.89,175.58 62.19,266.14 -37.02,59.04 -99.98,91.33 -164.57,91.33 -34.64,-0.8 -70.04,-10.23 -101.56,-29.14z"/>
    <path class="fil3" d="M7989.06 3581.35c-49.61,-94.5 -12.59,-211.81 81.89,-260.64 94.5,-49.62 211.02,-12.58 260.64,81.9 49.6,94.48 12.59,211.01 -81.9,260.63 -28.36,14.96 -59.05,22.04 -88.99,22.04 -70.08,-0.79 -137.77,-38.59 -171.64,-103.93z"/>
    <path class="fil3" d="M16269.16 3288.44c-99.21,-38.55 -149.59,-150.4 -111.03,-249.59 37.79,-99.2 150.4,-149.6 249.59,-111.03 100,38.57 149.6,150.4 111.03,249.59 -29.9,77.17 -103.14,124.4 -180.3,124.4 -22.84,-0.78 -46.46,-4.71 -69.29,-13.37z"/>
    <path class="fil3" d="M10448.85 2666.39c-20.48,-104.72 47.25,-206.3 151.94,-227.53 104.73,-20.49 206.29,47.24 227.55,151.94 20.46,104.72 -47.27,206.3 -151.96,227.55 -12.58,2.35 -25.21,3.92 -37.8,3.92 -91.32,-0.74 -171.62,-64.52 -189.73,-155.88z"/>
    <path class="fil3" d="M14445.61 2780.57c-105.51,-18.89 -174.82,-118.88 -155.91,-224.4 18.88,-104.73 118.88,-174.82 224.41,-155.91 104.71,18.88 174.8,118.89 155.91,224.4 -16.55,93.72 -98.42,159.08 -189.76,159.08 -11.84,0 -22.85,-0.82 -34.65,-3.17z"/>
    <path class="fil3" d="M12363.77 2431.77c-0.77,-107.08 84.25,-194.48 191.31,-195.28 107.09,-0.77 193.7,84.25 195.28,191.31 0.77,107.09 -85.04,194.48 -191.31,195.29 -0.77,0 -0.77,0 -1.57,0 -106.3,0 -192.93,-85.03 -193.71,-191.32z"/>
    <path class="fil3" d="M12123.6 21770.65c-107.07,-6.32 -188.18,-97.65 -181.88,-203.95 6.3,-106.29 97.65,-188.2 203.94,-181.88 106.31,6.3 188.19,97.63 181.9,203.94 -6.31,103.15 -91.34,181.89 -192.91,181.89 -3.95,0.8 -7.12,0.8 -11.05,0z"/>
    <path class="fil3" d="M9246.5 21123.4c-99.2,-40.14 -146.43,-152.75 -106.29,-251.96 40.15,-99.23 152.76,-146.45 251.96,-106.31 99.23,40.16 146.46,152.76 106.32,251.98 -30.73,74.82 -102.39,120.47 -178.75,120.47 -24.39,0.02 -49.61,-3.93 -73.24,-14.18z"/>
    <path class="fil3" d="M7511.92 20188.01c-88.18,-60.61 -110.22,-181.08 -49.61,-268.48 60.62,-88.19 181.09,-110.23 268.5,-49.62 88.18,60.63 110.22,181.1 49.61,268.5 -37.8,54.33 -97.65,83.47 -159.06,83.47 -37.8,0.78 -76.38,-11.05 -109.44,-33.87z"/>
    <path class="fil3" d="M18250.22 19618.72c-68.51,-81.09 -58.28,-203.13 22.81,-272.44 81.9,-69.29 203.14,-59.06 272.45,22.82 69.29,81.1 59.04,203.14 -22.82,272.44 -36.21,30.72 -81.09,45.68 -125.21,45.68 -54.33,0 -109.44,-22.82 -147.23,-68.5z"/>
    <path class="fil3" d="M6019.05 18901.43c-73.24,-77.95 -68.51,-199.99 9.47,-273.23 77.93,-73.23 199.97,-68.5 273.21,9.48 73.24,77.93 68.5,200.78 -9.45,273.21 -37.03,34.64 -84.25,51.97 -132.28,51.97 -51.2,0 -103.15,-20.48 -140.95,-61.43z"/>
    <path class="fil3" d="M19610.03 18250.27c-85.04,-64.58 -100.8,-185.83 -36.22,-270.87 64.59,-85.06 185.83,-100.8 270.87,-36.22 85.05,64.58 100.81,185.81 36.23,270.87 -37.8,49.6 -95.26,75.59 -153.54,75.59 -40.97,0.78 -81.9,-11.82 -117.34,-39.37z"/>
    <path class="fil3" d="M5385.2 18145.54c-63.76,-85.82 -46.45,-206.28 38.58,-270.87 85.04,-63.78 206.29,-46.45 270.87,38.58 63.76,85.04 46.45,206.29 -38.58,270.87 -34.64,25.97 -75.59,38.55 -115.73,38.55 -59.07,0.04 -116.56,-26.75 -155.14,-77.13z"/>
    <path class="fil3" d="M20172.22 17464.45c-91.33,-55.13 -120.47,-174.02 -65.36,-265.35 55.12,-91.33 174,-120.46 265.34,-65.34 91.34,55.11 120.47,174 65.35,265.33 -36.22,59.85 -99.99,92.9 -165.35,92.9 -34.64,0 -69.27,-8.66 -99.98,-27.54z"/>
    <path class="fil3" d="M20644.65 16621.96c-96.85,-44.88 -138.6,-159.84 -93.72,-256.67 44.88,-96.85 159.84,-138.6 256.67,-93.72 96.85,44.87 138.6,159.84 93.72,256.67 -33.07,70.86 -102.38,111.81 -175.58,111.81 -26.76,0.02 -54.31,-5.5 -81.09,-18.09z"/>
    <path class="fil3" d="M4023.81 15529.84c-33.07,-101.56 22.04,-210.22 123.62,-244.08 101.56,-33.06 210.22,22.06 244.08,123.62 33.07,101.57 -22.05,210.23 -123.61,244.08 -19.67,6.32 -40.16,9.48 -59.86,9.48 -81.86,0.77 -157.45,-51.19 -184.23,-133.1z"/>
    <path class="fil3" d="M21302.11 14807.82c-103.95,-22.82 -170.07,-125.97 -147.25,-229.91 22.84,-103.95 125.99,-170.08 229.92,-147.25 103.95,22.82 170.09,125.97 147.25,229.92 -19.66,90.56 -99.98,151.94 -188.97,151.94 -12.61,0.04 -26.77,-1.53 -40.95,-4.7z"/>
    <path class="fil3" d="M3768.71 14577.14c-22.05,-104.74 44.88,-207.11 149.59,-228.35 104.73,-22.06 207.11,44.87 229.13,149.6 22.04,104.72 -44.88,207.09 -149.61,229.11 -13.38,2.35 -26.78,3.93 -40.14,3.93 -89.78,-0.76 -170.08,-62.97 -188.97,-154.29z"/>
    <path class="fil3" d="M21446.21 14040.92c-106.3,-11.01 -182.65,-106.29 -171.64,-212.59 11.8,-106.31 107.06,-182.66 212.59,-171.65 106.31,11.01 182.67,107.07 171.65,212.59 -11.01,99.23 -94.49,172.43 -192.12,172.43 -6.32,0 -13.4,0 -20.48,-0.78z"/>
    <path class="fil3" d="M21323.37 11920.5c-9.47,-106.31 69.27,-199.99 175.58,-209.44 106.3,-9.48 199.98,69.27 210.21,175.57 9.46,106.31 -69.28,199.99 -175.57,209.44 -5.5,0.78 -11.82,0.78 -17.33,0.78 -99.98,0.04 -184.23,-75.55 -192.89,-176.35z"/>
    <path class="fil3" d="M3806.51 11846.48c-106.3,-12.58 -181.89,-108.64 -169.31,-214.17 12.59,-106.3 108.66,-181.89 214.19,-169.31 106.29,12.59 181.88,108.66 169.29,214.19 -11.81,98.41 -95.26,170.85 -192.13,170.85 -7.1,0.02 -14.18,-0.76 -22.04,-1.56z"/>
    <path class="fil3" d="M20953.31 10070.95c-32.28,-101.56 24.4,-210.21 125.98,-242.51 101.55,-32.29 210.22,23.64 242.5,125.98 32.28,101.56 -24.41,210.21 -125.97,242.51 -19.68,6.3 -39.37,9.47 -58.28,9.47 -82.67,-0.82 -158.26,-52.78 -184.23,-135.45z"/>
    <path class="fil3" d="M20618.66 9187.5c-43.3,-97.65 0.78,-211.81 98.41,-255.13 97.65,-43.3 211.81,0.77 255.13,98.4 43.3,97.65 -0.77,211.8 -98.4,255.14 -25.21,11.01 -51.96,16.55 -77.95,16.55 -74.03,0 -144.9,-42.5 -177.19,-114.96z"/>
    <path class="fil3" d="M4545.07 9055.21c-96.06,-45.67 -137.01,-161.42 -91.33,-257.47 45.68,-96.07 161.41,-137.02 257.47,-91.33 96.08,45.68 137.02,161.41 91.34,257.47 -33.06,69.28 -102.37,110.23 -174.81,110.23 -27.56,0 -55.91,-5.5 -82.67,-18.9z"/>
    <path class="fil3" d="M4989.14 8197.76c-90.55,-55.93 -118.89,-175.58 -63.01,-266.15 55.93,-90.54 174.82,-118.89 266.15,-63 90.55,55.92 118.89,175.59 63,266.14 -37.02,59.04 -100,91.33 -164.58,91.33 -34.63,0.04 -70.07,-9.43 -101.56,-28.32z"/>
    <path class="fil3" d="M19673.04 7555.26c-63.01,-85.83 -44.88,-207.11 40.95,-270.08 85.82,-63 207.08,-44.87 270.05,40.95 63,85.83 44.89,207.1 -40.95,270.08 -34.63,25.2 -74.81,37.79 -114.14,37.79 -59.08,0 -118.12,-26.75 -155.91,-78.74z"/>
    <path class="fil3" d="M6141.87 6650.56c-76.37,-74.81 -78.74,-196.85 -3.93,-273.21 74.01,-76.36 196.86,-78.74 273.22,-3.93 76.36,74.82 78.75,196.86 3.93,273.23 -37.79,39.37 -88.17,59.04 -138.59,59.04 -48.03,-0.82 -96.83,-18.91 -134.63,-55.13z"/>
    <path class="fil3" d="M17654.96 5579.7c-87.39,-61.41 -108.64,-181.88 -47.25,-269.29 61.42,-87.4 181.88,-108.64 269.28,-47.25 87.42,61.43 108.66,181.89 47.27,269.3 -37.8,53.52 -97.65,81.88 -158.27,81.88 -37.81,0.81 -77.16,-10.2 -111.03,-34.64z"/>
    <path class="fil3" d="M16003.03 4668.72c-98.42,-40.95 -144.88,-154.33 -103.95,-252.75 40.95,-98.42 154.33,-144.86 252.74,-103.94 98.41,40.95 144.86,154.33 103.96,252.74 -30.72,74.01 -103.16,118.89 -178.75,118.89 -25.17,0.02 -49.6,-4.7 -74,-14.94z"/>
    <path class="fil3" d="M9294.54 4466.36c-38.56,-99.22 11.81,-211.04 111.04,-249.6 99.2,-38.56 211.02,11.82 249.59,111.03 38.57,100 -11.83,211.81 -111.03,249.59 -22.84,8.67 -46.46,12.6 -69.29,12.6 -77.17,0.8 -150.37,-46.47 -180.31,-123.62z"/>
    <path class="fil3" d="M15111.7 4353.78c-102.37,-29.92 -161.42,-137.79 -131.5,-240.16 29.9,-102.38 137.78,-160.64 240.16,-130.7 102.36,29.9 161.41,137 131.5,240.16 -24.4,84.24 -101.56,138.57 -185.81,138.57 -17.33,-0.01 -36.22,-2.37 -54.35,-7.87z"/>
    <path class="fil3" d="M11149.61 3935.65c-15.73,-105.49 57.47,-203.93 162.99,-219.67 105.51,-15.76 203.94,57.46 219.7,162.99 15.73,105.49 -56.69,203.93 -163,219.67 -9.47,1.58 -19.68,2.35 -28.36,2.35 -94.49,-0.77 -177.16,-69.27 -191.33,-165.34z"/>
    <path class="fil3" d="M13254.28 4023.05c-106.31,-7.08 -187.4,-99.2 -179.54,-206.29 7.07,-106.29 99.22,-187.38 206.28,-179.53 106.31,7.09 187.41,99.21 179.55,206.3 -7.08,102.36 -92.14,180.3 -192.91,180.3 -3.93,0.04 -8.65,0.04 -13.38,-0.78z"/>
    <path class="fil3" d="M12108.64 3824.66c-3.93,-107.09 78.74,-196.86 185.82,-200.79 107.07,-3.93 196.86,78.74 200.79,185.81 3.93,107.08 -78.74,196.86 -185.83,200.79 -2.35,0 -5.5,0 -7.87,0 -103.12,0 -188.18,-81.9 -192.91,-185.81z"/>
    <path class="fil3" d="M12670.85 20214.76c-2.34,-107.07 81.08,-195.28 188.19,-198.43 107.08,-2.35 195.29,81.09 198.44,188.2 2.34,107.08 -81.09,195.28 -188.2,198.43 -1.57,0 -3.92,0 -5.5,0 -103.99,0 -189.81,-83.47 -192.93,-188.2z"/>
    <path class="fil3" d="M10903.17 20204.53c-103.94,-24.4 -168.49,-128.35 -144.08,-232.28 24.39,-103.94 128.35,-168.49 232.26,-144.08 103.95,24.39 168.5,128.34 144.11,232.27 -20.49,88.98 -100.01,149.59 -188.21,149.59 -14.16,0.04 -29.14,-2.35 -44.08,-5.5z"/>
    <path class="fil3" d="M14582.59 19966.76c-29.92,-102.37 29.13,-210.23 131.49,-239.36 102.38,-29.91 209.46,29.13 240.17,131.5 29.9,102.38 -29.13,209.46 -131.51,239.36 -18.13,5.5 -36.22,7.88 -54.35,7.88 -84.2,-0.02 -161.37,-55.13 -185.8,-139.38z"/>
    <path class="fil3" d="M9954.36 19917.94c-99.98,-37.78 -150.41,-148.81 -113.38,-248.81 37.79,-99.99 148.82,-150.41 248.82,-113.39 99.99,37.8 150.41,148.83 113.38,248.83 -29.13,77.17 -103.14,125.2 -181.09,125.2 -22.05,-0.04 -44.87,-3.97 -67.73,-11.83z"/>
    <path class="fil3" d="M8207.97 18990.4c-87.41,-61.41 -107.88,-182.65 -45.69,-269.29 61.43,-87.4 182.67,-107.86 269.29,-45.67 87.42,61.43 107.88,182.65 45.68,269.29 -37.78,53.53 -97.63,81.89 -157.48,81.89 -39.37,-0.79 -77.97,-12.62 -111.8,-36.22z"/>
    <path class="fil3" d="M17173.87 18707.73c-66.15,-83.47 -52.75,-205.52 31.5,-271.65 83.47,-66.16 205.51,-52.76 271.63,31.49 66.15,83.47 52.77,205.51 -31.48,271.65 -35.44,28.36 -77.94,41.71 -120.46,41.71 -56.7,0.04 -113.39,-24.36 -151.19,-73.2z"/>
    <path class="fil3" d="M7437.88 18366.81c-78.74,-72.44 -83.46,-194.48 -11.01,-273.22 72.44,-78.75 194.49,-83.49 273.23,-11.01 78.74,72.42 83.46,194.46 11.01,273.22 -37.8,40.95 -89.75,62.19 -142.53,62.19 -46.41,-0.04 -92.88,-17.36 -130.7,-51.18z"/>
    <path class="fil3" d="M6754.46 17650.29c-68.5,-81.89 -58.26,-203.95 23.63,-272.44 81.89,-68.51 203.94,-58.28 272.44,23.63 68.52,81.89 58.28,203.94 -23.63,272.43 -36.2,30.71 -80.32,44.89 -124.39,44.89 -55.13,0.76 -109.48,-22.86 -148.05,-68.51z"/>
    <path class="fil3" d="M18553.37 17361.29c-85.06,-63.76 -102.37,-185.04 -38.56,-270.87 63.76,-85.04 185.04,-102.37 270.87,-38.57 85.04,63.78 102.37,185.05 38.55,270.87 -37.78,50.38 -96.06,77.17 -154.32,77.17 -40.96,0.77 -81.13,-11.81 -116.54,-38.6z"/>
    <path class="fil3" d="M6167.84 16852.64c-57.46,-89.75 -31.47,-209.44 58.28,-266.9 89.75,-57.46 209.44,-31.49 266.9,58.26 57.48,89.77 31.49,209.46 -58.26,266.92 -32.29,20.48 -68.51,30.71 -103.96,30.71 -63.74,0 -125.93,-31.49 -162.96,-88.99z"/>
    <path class="fil3" d="M19103.73 16567.61c-92.9,-52.75 -125.19,-170.85 -73.24,-263.79 52.78,-92.91 170.85,-125.97 263.8,-73.24 92.9,52.78 125.19,170.85 73.24,263.79 -35.44,63.01 -100.81,97.65 -168.5,97.65 -32.29,0.02 -65.36,-7.85 -95.3,-24.41z"/>
    <path class="fil3" d="M19547.03 15708.59c-98.41,-40.15 -146.44,-152.76 -106.29,-251.99 40.13,-98.4 152.74,-146.43 251.97,-106.29 98.4,40.14 146.43,152.75 106.3,251.97 -30.71,74.81 -103.16,120.47 -178.74,120.47 -24.4,0.02 -49.61,-4.71 -73.24,-14.16z"/>
    <path class="fil3" d="M5324.55 15065.31c-33.05,-101.58 22.84,-210.22 125.2,-243.31 101.58,-33.07 210.23,22.81 243.32,124.39 33.05,101.56 -22.83,210.22 -124.39,243.31 -19.67,6.3 -39.37,9.46 -59.06,9.46 -82.69,0 -158.28,-51.96 -185.07,-133.85z"/>
    <path class="fil3" d="M5082.86 14104.71c-19.68,-104.74 50.38,-205.52 155.09,-225.2 104.73,-18.89 205.53,50.38 225.2,155.1 18.89,104.74 -50.38,205.52 -155.11,225.2 -11.81,2.34 -23.62,3.16 -35.45,3.16 -91.32,0 -172.42,-65.36 -189.73,-158.26z"/>
    <path class="fil3" d="M20084.82 13856.65c-106.3,-13.38 -181.1,-110.21 -167.74,-216.52 13.41,-105.49 110.24,-180.32 216.54,-166.92 105.49,13.39 180.31,110.23 166.92,216.52 -12.58,97.65 -95.26,169.31 -191.33,169.31 -7.86,-0.8 -16.51,-0.8 -24.39,-2.39z"/>
    <path class="fil3" d="M4966.32 13121.24c-5.52,-106.3 76.35,-197.63 182.66,-203.14 107.08,-5.5 197.63,76.38 203.14,182.68 5.5,106.29 -76.37,197.62 -182.66,203.12 -3.17,0 -7.1,0 -10.25,0 -101.56,0.04 -187.39,-79.5 -192.89,-182.66z"/>
    <path class="fil3" d="M5314.32 11094.52c-104.73,-21.24 -171.65,-123.62 -150.4,-228.34 21.24,-104.71 123.61,-171.65 228.34,-150.39 104.72,21.24 171.65,123.62 150.41,228.33 -18.91,91.33 -99.23,154.33 -188.98,154.33 -13.39,0.04 -26.75,-1.54 -39.37,-3.93z"/>
    <path class="fil3" d="M18601.41 8430.03c-62.21,-86.6 -42.53,-207.88 44.09,-270.06 86.6,-62.21 207.09,-42.53 269.3,44.09 62.19,86.6 42.52,207.1 -44.1,269.29 -33.87,24.4 -74.01,36.23 -112.61,36.23 -59.85,0.77 -118.89,-27.57 -156.68,-79.55z"/>
    <path class="fil3" d="M17844.72 7534c-73.24,-77.93 -69.29,-199.97 8.65,-273.21 77.93,-73.24 199.99,-68.51 273.23,9.45 73.23,77.95 69.27,199.99 -8.67,273.23 -37.8,34.64 -85.05,51.95 -132.28,51.95 -51.16,0 -102.34,-20.46 -140.93,-61.42z"/>
    <path class="fil3" d="M7535.53 7206.44c-70.86,-79.52 -63,-202.36 16.54,-273.22 79.52,-70.85 202.36,-62.99 273.22,16.55 70.86,79.52 63.01,202.36 -16.55,272.45 -37.02,33.06 -82.67,48.81 -128.35,48.81 -53.51,0 -106.26,-21.29 -144.86,-64.59z"/>
    <path class="fil3" d="M17318.75 7058.41c-81.91,-67.69 -93.71,-189.73 -25.98,-272.44 67.69,-81.9 189.73,-93.7 272.44,-25.97 81.89,67.69 93.72,189.73 25.99,272.44 -37.8,46.45 -93.72,70.09 -148.83,70.09 -44.11,0.76 -87.41,-14.18 -123.62,-44.12z"/>
    <path class="fil3" d="M8475.69 6480.49c-59.85,-88.18 -37.03,-208.64 51.18,-268.48 88.18,-59.85 208.65,-37.03 268.48,51.18 59.85,88.18 37.03,208.64 -51.18,268.48 -33.07,22.84 -70.86,33.88 -108.66,33.88 -61.41,-0.81 -122.04,-29.95 -159.82,-85.06z"/>
    <path class="fil3" d="M15729.81 6056.86c-96.85,-44.87 -139.37,-159.83 -94.5,-256.67 44.88,-96.83 159.84,-139.35 256.69,-94.48 96.83,44.88 139.36,159.84 94.48,256.67 -33.07,70.87 -102.38,111.81 -175.58,111.81 -27.56,0.8 -55.12,-4.74 -81.09,-17.33z"/>
    <path class="fil3" d="M9979.57 5680.5c-35.44,-100.8 17.31,-211.01 118.11,-246.44 100.8,-35.44 211.02,17.32 246.44,118.12 35.44,100.8 -17.31,211.03 -118.11,246.43 -21.26,7.89 -43.3,11.01 -64.58,11.01 -79.48,0 -153.53,-49.59 -181.86,-129.12z"/>
    <path class="fil3" d="M14851.88 5718.3c-101.58,-32.29 -158.26,-140.17 -126.79,-242.51 32.29,-101.56 140.17,-158.26 242.51,-126.77 101.58,32.29 158.26,140.16 126.79,242.51 -25.99,82.67 -102.38,135.42 -184.25,135.42 -19.67,0 -39.37,-3.15 -58.26,-8.65z"/>
    <path class="fil3" d="M10902.38 5394.69c-22.06,-104.72 44.87,-207.08 148.83,-229.12 104.71,-22.04 207.08,44.12 229.1,148.83 22.06,104.73 -44.1,207.1 -148.81,229.12 -13.4,2.36 -26.79,3.93 -40.15,3.93 -89.75,0.78 -170.08,-61.43 -188.97,-152.76z"/>
    <path class="fil3" d="M13937.73 5495.46c-104.73,-18.89 -175.58,-118.89 -156.69,-223.61 18.91,-105.5 118.89,-175.59 223.62,-156.68 104.71,18.12 175.58,118.89 156.67,223.6 -16.53,93.72 -98.41,159.84 -190.53,159.84 -10.25,0 -21.26,-1.58 -33.07,-3.15z"/>
    <path class="fil3" d="M13003.11 5392.32c-106.3,-4.74 -188.97,-95.26 -184.25,-202.36 4.73,-107.08 95.26,-188.98 202.36,-184.25 107.09,4.73 188.98,95.26 184.25,201.57 -4.74,103.95 -90.56,184.23 -192.9,184.23 -3.15,0.81 -6.3,0.81 -9.46,0.81z"/>
    <path class="fil3" d="M9750.45 18317.96c-94.48,-49.6 -131.5,-166.13 -82.67,-260.63 48.8,-94.48 166.15,-131.5 260.63,-82.67 94.48,49.62 131.5,166.16 82.67,260.63 -34.64,66.16 -101.56,103.96 -171.64,103.96 -30.71,0 -60.65,-7.08 -88.99,-21.29z"/>
    <path class="fil3" d="M15792.8 17979.4c-62.19,-86.6 -43.3,-207.88 43.3,-270.07 86.6,-62.19 207.1,-43.3 270.07,43.3 62.2,86.6 43.3,207.09 -43.3,270.07 -34.64,24.39 -74.02,37.02 -113.39,37.02 -59.83,0 -118.89,-27.57 -156.68,-80.32z"/>
    <path class="fil3" d="M8904.79 17790.43c-85.83,-63.01 -103.96,-184.25 -40.15,-270.08 63,-85.82 184.23,-103.95 270.07,-40.94 85.82,63.78 103.95,184.24 40.95,270.07 -37.8,51.18 -96.08,77.94 -155.91,77.94 -40.15,0.8 -80.3,-11.78 -114.96,-36.99z"/>
    <path class="fil3" d="M8153.62 17137.69c-74.81,-75.59 -74.01,-198.45 2.36,-273.22 76.37,-74.82 198.43,-74.02 273.22,2.35 74.82,76.35 74.01,198.43 -2.35,273.21 -37.8,37.03 -86.6,55.92 -135.43,55.92 -50.4,-0.78 -100,-19.66 -137.8,-58.26z"/>
    <path class="fil3" d="M18030.52 15666.08c-95.25,-48.8 -133.05,-165.34 -83.46,-260.63 48.8,-95.26 165.34,-132.28 260.63,-83.48 95.26,48.81 132.28,165.35 83.47,259.83 -33.86,66.93 -101.57,105.51 -172.42,105.51 -29.94,0.02 -59.86,-7.06 -88.22,-21.23z"/>
    <path class="fil3" d="M6999.32 15523.56c-48.03,-95.26 -8.66,-211.79 86.6,-259.04 95.26,-48.03 211.79,-8.66 259.06,86.6 48.03,95.25 8.66,211.79 -86.6,259.04 -27.57,14.18 -57.46,20.48 -86.6,20.48 -70.88,0 -139.39,-39.37 -172.46,-107.08z"/>
    <path class="fil3" d="M18429.74 14785.78c-101.56,-33.07 -156.67,-142.53 -123.62,-244.09 33.07,-101.57 142.53,-156.68 244.09,-123.62 101.58,33.06 156.68,142.51 123.63,244.09 -26.78,81.9 -102.37,133.05 -183.47,133.05 -20.48,0.8 -40.95,-2.35 -60.63,-9.43z"/>
    <path class="fil3" d="M6626.11 14599.95c-32.29,-101.56 24.41,-210.22 125.97,-242.51 101.58,-32.28 210.22,24.42 242.51,126.79 32.29,101.56 -24.41,210.22 -126.77,242.51 -19.68,6.31 -38.57,8.66 -58.28,8.66 -81.05,0 -157.44,-52.78 -183.43,-135.45z"/>
    <path class="fil3" d="M18684.85 13854.31c-105.51,-16.55 -177.17,-115.73 -160.65,-221.26 16.56,-105.49 115.74,-177.15 221.27,-160.64 105.49,16.54 177.15,115.73 160.63,221.25 -14.96,95.26 -96.83,162.99 -190.55,162.99 -10.24,0.82 -20.46,0 -30.7,-2.34z"/>
    <path class="fil3" d="M6403.27 13629.12c-15.74,-105.49 57.46,-203.94 162.99,-219.69 105.51,-15.74 203.95,57.48 219.69,163 15.74,105.5 -57.46,203.94 -162.99,219.68 -9.47,1.57 -18.91,2.35 -28.36,2.35 -94.46,0 -176.35,-69.28 -191.33,-165.34z"/>
    <path class="fil3" d="M18596.66 12701.59c0,-107.08 86.6,-192.9 192.9,-192.9 107.09,0 193.71,86.6 193.71,192.9 0,107.06 -86.6,192.89 -193.71,192.89 -106.3,0.81 -192.9,-85.83 -192.9,-192.89z"/>
    <path class="fil3" d="M6527.7 12831.5c-107.08,-0.77 -192.12,-88.97 -191.33,-195.27 0.78,-107.06 88.18,-192.12 195.28,-191.32 107.08,0.78 192.13,88.19 191.33,195.29 -0.77,106.28 -87.4,191.3 -192.91,191.3 -0.79,0 -1.59,0 -2.37,0z"/>
    <path class="fil3" d="M18541.55 11890.58c-14.16,-105.49 59.86,-203.12 165.34,-217.32 105.51,-14.16 203.14,59.84 218.12,165.35 14.16,105.48 -59.86,203.13 -165.34,217.33 -8.66,0.76 -18.13,1.56 -26.79,1.56 -95.26,0.82 -177.93,-70.07 -191.33,-166.92z"/>
    <path class="fil3" d="M18342.34 10978.03c-30.71,-102.38 26.78,-210.22 129.13,-240.94 102.37,-30.71 210.22,26.79 240.93,129.13 30.71,102.37 -26.79,210.21 -129.13,240.93 -18.89,5.51 -37.79,8.65 -55.92,8.65 -82.63,-0.79 -159.8,-54.33 -185.01,-137.77z"/>
    <path class="fil3" d="M6787.52 10923.67c-100.79,-33.86 -155.11,-144.08 -121.26,-244.87 33.87,-100.81 144.1,-155.12 244.88,-121.27 101.58,33.86 155.91,143.28 121.27,244.88 -26.77,80.32 -102.36,131.5 -183.46,131.5 -19.7,0 -40.95,-3.15 -61.43,-10.24z"/>
    <path class="fil3" d="M18001.43 10107.95c-46.46,-96.07 -6.31,-211.81 89.75,-258.26 96.05,-46.45 211.79,-7.08 258.24,88.99 46.47,96.05 6.32,211.8 -88.97,258.25 -27.56,13.38 -55.93,19.66 -84.25,19.66 -72.44,0 -141.71,-40.13 -174.77,-108.64z"/>
    <path class="fil3" d="M17527.42 9302.46c-61.43,-87.42 -40.15,-207.88 47.25,-269.3 87.41,-61.42 207.88,-40.14 269.29,47.25 61.43,87.41 39.37,207.87 -47.25,269.3 -33.86,23.63 -72.44,34.64 -111.03,34.64 -60.66,0 -120.47,-28.36 -158.26,-81.89z"/>
    <path class="fil3" d="M16932.94 8580.44c-74.01,-76.37 -71.66,-199.21 4.73,-273.22 77.17,-74.02 199.21,-71.67 273.22,4.72 74.02,76.37 71.66,199.21 -4.72,273.23 -37.8,36.21 -85.83,54.33 -133.86,54.33 -50.41,-0.02 -100.79,-19.69 -139.37,-59.06z"/>
    <path class="fil3" d="M8243.38 8445.79c-74.82,-76.35 -73.24,-199.2 3.15,-273.22 76.36,-74.81 199.21,-73.22 273.22,3.17 74.82,76.35 73.24,198.43 -3.15,273.22 -37.8,37.02 -86.6,55.11 -134.63,55.11 -50.38,0 -100.8,-19.71 -138.59,-58.28z"/>
    <path class="fil3" d="M8965.44 7804.87c-61.43,-87.41 -40.95,-207.87 46.45,-269.28 87.39,-61.43 207.86,-40.96 269.29,46.45 61.42,87.4 40.95,207.87 -46.45,269.28 -33.87,24.41 -73.24,35.46 -111.81,35.46 -59.87,-0.04 -119.69,-28.37 -157.48,-81.91z"/>
    <path class="fil3" d="M15444.76 7457.61c-94.48,-50.39 -129.92,-166.92 -79.5,-261.4 50.38,-94.5 166.92,-129.94 261.39,-79.52 94.5,50.38 129.94,167.72 79.53,261.4 -34.65,65.35 -101.58,102.37 -170.85,102.37 -29.92,0 -61.43,-7.87 -90.57,-22.85z"/>
    <path class="fil3" d="M9779.58 7285.18c-47.25,-96.05 -7.87,-211.79 88.18,-259.04 95.26,-47.27 211.8,-7.9 259.06,88.17 47.25,95.26 7.88,211.8 -88.17,259.05 -27.57,13.4 -56.7,19.67 -85.07,19.67 -71.66,0.04 -140.93,-39.33 -174,-107.85z"/>
    <path class="fil3" d="M14587.31 7084.4c-100.8,-34.65 -154.33,-144.86 -120.47,-245.66 34.65,-100.8 144.88,-155.11 245.67,-120.47 100.8,34.65 154.33,144.86 119.7,245.66 -27.56,80.32 -102.37,130.7 -182.67,130.7 -19.7,0.82 -40.95,-2.35 -62.23,-10.23z"/>
    <path class="fil3" d="M10664.59 6900.15c-31.47,-102.36 25.22,-210.22 127.55,-241.73 102.38,-31.48 210.22,25.99 241.74,127.55 31.48,102.37 -25.97,210.23 -127.55,241.74 -18.89,5.51 -37.8,8.66 -56.68,8.66 -82.7,0 -159.07,-53.53 -185.06,-136.22z"/>
    <path class="fil3" d="M13682.64 6852.9c-105.51,-18.13 -175.58,-118.12 -157.49,-223.6 18.11,-104.73 118.11,-175.59 223.6,-157.49 105.51,18.11 175.58,118.11 157.49,223.6 -16.54,93.72 -97.63,159.84 -189.74,159.84 -11.84,0.04 -22.85,-0.78 -33.86,-2.35z"/>
    <path class="fil3" d="M11599.99 6660c-14.96,-105.49 58.28,-203.94 164.58,-218.88 105.49,-14.96 203.14,58.28 218.1,164.57 14.97,105.5 -58.26,203.95 -164.56,218.89 -9.48,0.76 -18.14,1.57 -27.57,1.57 -94.48,0 -177.15,-70.08 -190.55,-166.15z"/>
    <path class="fil3" d="M12380.29 17636.89c-106.31,-5.5 -188.2,-96.83 -181.9,-203.94 5.51,-106.3 96.84,-188.2 203.94,-181.89 106.3,5.52 188.2,96.85 181.89,203.95 -5.5,103.14 -91.32,182.66 -192.9,182.66 -3.16,-0.78 -7.08,-0.78 -11.03,-0.78z"/>
    <path class="fil3" d="M13163.75 17428.23c-15.74,-105.51 57.46,-203.94 162.99,-218.88 105.49,-15.75 203.93,57.46 219.69,162.99 15.74,105.49 -57.48,203.94 -163,219.67 -9.46,1.58 -18.89,2.36 -28.37,2.36 -94.48,0 -177.15,-69.27 -191.31,-166.14z"/>
    <path class="fil3" d="M11388.97 17479.41c-103.15,-27.55 -164.56,-133.06 -137.02,-236.23 27.56,-103.15 133.07,-164.56 236.24,-137.02 103.14,27.56 164.57,133.07 137.01,236.24 -22.82,86.6 -100.8,144.09 -186.63,144.09 -15.73,-0.78 -33.05,-2.35 -49.6,-7.08z"/>
    <path class="fil3" d="M14108.6 17230.6c-37.02,-99.99 14.97,-211.04 115.73,-248.02 100.01,-37.02 211.04,14.96 248.02,114.96 37.02,99.98 -14.96,211.02 -114.96,248.02 -22.04,7.87 -44.1,11.8 -66.16,11.8 -80.28,0 -154.29,-48.8 -182.63,-126.76z"/>
    <path class="fil3" d="M10450.43 17124.29c-95.26,-48.03 -133.87,-163.77 -86.6,-259.05 48.03,-95.27 163.76,-133.87 259.04,-86.6 95.26,48.03 133.87,163.77 86.6,259.05 -33.86,67.71 -102.37,107.08 -173.22,107.08 -29.14,0 -58.28,-6.28 -85.82,-20.48z"/>
    <path class="fil3" d="M14992.81 16843.98c-56.68,-90.54 -28.36,-210.22 62.21,-266.12 90.54,-56.71 210.22,-28.36 266.12,62.19 55.92,90.55 28.36,210.21 -62.19,266.14 -31.49,19.67 -66.93,29.14 -101.56,29.14 -64.58,0 -127.56,-32.27 -164.58,-91.35z"/>
    <path class="fil3" d="M9602.39 16586.52c-84.24,-66.16 -98.4,-187.41 -32.28,-271.65 66.15,-83.47 187.4,-98.41 271.64,-32.3 83.47,66.17 98.41,187.41 32.29,271.66 -38.57,48.8 -94.48,74.01 -151.95,74.01 -41.73,-0.77 -84.25,-14.18 -119.7,-41.72z"/>
    <path class="fil3" d="M16441.62 15581.84c-87.4,-61.43 -108.66,-181.9 -47.27,-269.3 61.43,-87.39 181.9,-108.64 269.3,-47.25 87.41,61.41 108.66,181.88 47.26,269.29 -37.79,53.54 -97.65,82.68 -158.26,82.68 -38.59,0 -77.2,-11.83 -111.03,-35.42z"/>
    <path class="fil3" d="M8314.26 15059.8c-51.18,-93.72 -16.53,-211.02 77.17,-262.22 93.72,-51.17 211.03,-16.53 262.21,77.17 51.18,93.72 16.55,211.02 -77.17,262.22 -29.13,15.73 -60.61,23.63 -92.12,23.63 -68.51,-0.04 -134.67,-36.26 -170.09,-100.8z"/>
    <path class="fil3" d="M16946.3 14759.02c-97.63,-42.53 -143.28,-155.91 -100.79,-254.32 42.53,-97.65 155.92,-143.29 254.33,-100.8 97.63,42.52 143.28,155.91 100.78,254.33 -31.47,73.24 -102.36,116.54 -177.95,116.54 -25.95,0 -51.94,-5.51 -76.37,-15.75z"/>
    <path class="fil3" d="M7927.67 14133.84c-30.71,-102.37 26.78,-210.22 129.12,-240.93 102.38,-30.71 210.22,26.78 240.94,129.12 30.71,102.38 -26.79,210.22 -129.13,240.94 -18.91,5.5 -37.79,8.65 -55.93,8.65 -83.44,-0.8 -159.83,-54.33 -185,-137.78z"/>
    <path class="fil3" d="M7736.32 13148.03c-9.48,-106.31 69.27,-199.99 175.57,-209.44 106.31,-9.47 199.99,69.27 209.44,175.58 9.48,106.3 -69.27,199.98 -174.79,209.44 -6.32,0.77 -11.83,0.77 -17.33,0.77 -99.19,0.04 -183.44,-76.36 -192.89,-176.35z"/>
    <path class="fil3" d="M8084.35 11407.11c-101.58,-33.06 -156.68,-142.5 -123.63,-244.08 33.06,-101.56 142.52,-156.68 244.1,-123.61 101.56,33.06 156.67,142.52 123.62,244.08 -26.79,81.89 -102.37,133.05 -183.47,133.05 -20.48,0.8 -40.95,-2.31 -60.62,-9.44z"/>
    <path class="fil3" d="M16884.92 10992.96c-40.16,-98.42 7.87,-211.79 106.3,-251.98 99.21,-40.13 211.79,7.9 251.96,107.09 40.15,98.4 -7.88,211.79 -107.06,251.96 -23.63,9.47 -48.05,14.16 -72.44,14.16 -76.43,-0.74 -148.85,-46.41 -178.76,-121.23z"/>
    <path class="fil3" d="M8440.23 10510.3c-92.9,-53.55 -124.38,-171.66 -71.66,-263.79 52.77,-92.91 171.67,-124.39 263.79,-71.66 92.92,53.53 124.39,171.64 71.66,263.79 -35.44,62.18 -100.78,96.83 -167.71,96.83 -32.29,0.02 -65.36,-7.82 -96.08,-25.17z"/>
    <path class="fil3" d="M8970.94 9703.25c-80.32,-70.86 -87.4,-192.91 -17.33,-272.44 70.86,-80.32 192.9,-87.4 272.45,-17.33 80.33,70.86 87.41,192.9 17.33,273.22 -37.8,43.3 -91.33,65.36 -144.88,65.36 -44.9,0 -90.59,-16.56 -127.57,-48.81z"/>
    <path class="fil3" d="M15862.88 9461.52c-76.35,-74.83 -76.35,-197.63 -1.57,-273.22 74.81,-75.59 197.63,-76.37 273.22,-1.58 76.37,74.82 76.37,197.63 1.57,273.22 -37.79,37.8 -87.39,57.47 -137.77,57.47 -48.85,0 -97.65,-18.91 -135.45,-55.89z"/>
    <path class="fil3" d="M9652.82 9019.8c-63.79,-85.06 -47.27,-206.29 38.57,-270.87 85.04,-63.78 206.29,-47.26 270.85,37.8 63.78,85.82 47.27,207.08 -37.78,270.87 -34.64,25.97 -75.59,38.55 -115.73,38.55 -59.86,0.82 -118.12,-25.97 -155.91,-76.35z"/>
    <path class="fil3" d="M14319.59 8456.82c-99.2,-38.57 -148.82,-151.18 -109.45,-250.41 38.57,-99.22 151.18,-148.83 250.4,-109.45 99.21,38.57 148.83,151.18 109.46,250.4 -29.92,76.35 -103.16,122.85 -180.32,122.85 -23.62,0.77 -47.23,-3.93 -70.09,-13.39z"/>
    <path class="fil3" d="M11354.33 8129.24c-25.21,-103.94 38.57,-208.64 142.52,-233.07 103.95,-25.21 207.87,38.58 233.08,142.53 25.19,103.95 -38.58,207.87 -142.53,233.07 -14.96,3.16 -30.71,5.51 -45.67,5.51 -86.6,0.02 -166.12,-59.06 -187.4,-148.04z"/>
    <path class="fil3" d="M13428.3 8209.56c-105.49,-18.11 -175.58,-117.31 -158.25,-222.82 18.12,-105.51 117.3,-176.39 222.83,-158.26 105.51,18.11 176.39,117.3 158.26,222.82 -15.73,94.5 -97.63,160.66 -190.55,160.66 -11.03,0.76 -21.28,0 -32.29,-2.4z"/>
    <path class="fil3" d="M12304.7 7961.55c-3.15,-107.06 80.31,-196.05 186.62,-199.98 106.29,-3.16 196.06,80.33 199.21,186.62 3.93,106.31 -79.52,196.05 -186.62,199.21 -2.36,0 -4.73,0 -6.31,0 -103.13,0.75 -188.95,-81.92 -192.9,-185.85z"/>
    <path class="fil3" d="M12928.3 16065.28c-14.18,-105.49 59.04,-203.14 165.34,-218.11 105.5,-14.17 203.14,59.85 218.1,165.34 14.16,105.51 -59.85,203.14 -165.34,217.33 -8.66,1.58 -18.13,1.58 -26.79,1.58 -95.25,1.58 -178.71,-69.31 -191.31,-166.14z"/>
    <path class="fil3" d="M13868.44 15852.67c-44.1,-97.63 -0.76,-211.8 96.85,-255.9 96.84,-44.09 211.8,-0.77 255.89,96.84 44.1,96.83 0.78,211.79 -96.05,255.91 -25.99,11.8 -52.78,17.31 -79.52,17.31 -74.01,0.04 -144.88,-42.5 -177.17,-114.16z"/>
    <path class="fil3" d="M11152.77 15930.65c-96.84,-44.88 -138.58,-160.65 -93.71,-256.67 45.67,-96.85 160.64,-138.59 256.68,-93.72 96.82,44.88 138.59,160.64 93.71,256.67 -33.06,70.09 -102.37,111.81 -174.81,111.81 -27.52,0 -55.09,-6.3 -81.87,-18.09z"/>
    <path class="fil3" d="M14710.17 15381.83c-69.28,-81.09 -60.63,-203.14 20.46,-272.45 81.1,-69.29 203.14,-60.63 272.45,20.47 70.09,81.09 60.62,203.13 -20.48,272.44 -37.02,31.5 -81.08,46.46 -125.97,46.46 -54.37,0 -107.91,-22.82 -146.46,-66.92z"/>
    <path class="fil3" d="M10301.6 15371.58c-80.32,-70.84 -87.4,-192.89 -16.56,-272.44 70.87,-80.32 192.91,-87.41 272.45,-17.32 79.52,70.86 87.4,192.91 16.56,272.44 -37.8,43.31 -91.33,65.36 -144.88,65.36 -44.88,0.81 -90.55,-15.75 -127.57,-48.04z"/>
    <path class="fil3" d="M15384.93 14692.1c-89.76,-58.28 -114.97,-177.97 -57.47,-266.92 58.26,-89.76 177.15,-114.96 266.9,-57.46 89.76,58.26 114.96,177.96 57.47,266.9 -37.02,56.7 -99.21,88.19 -162.18,88.19 -36.22,0 -72.43,-9.47 -104.72,-30.71z"/>
    <path class="fil3" d="M9642.58 14596.02c-56.7,-90.54 -29.91,-209.43 60.62,-266.12 90.55,-56.7 209.44,-29.92 266.9,60.62 56.7,90.54 29.92,209.43 -60.62,266.9 -32.29,19.68 -67.69,29.91 -102.37,29.91 -65.32,-0.78 -128.32,-33.03 -164.53,-91.31z"/>
    <path class="fil3" d="M15836.91 13840.14c-102.37,-30.7 -160.65,-137.78 -130.71,-240.16 29.91,-102.37 137.8,-161.41 240.17,-130.7 102.36,29.92 160.64,137.78 130.7,240.15 -24.41,84.25 -101.58,138.6 -185.05,138.6 -18.13,-0.04 -36.22,-2.39 -55.11,-7.89z"/>
    <path class="fil3" d="M9229.19 13665.34c-29.14,-103.15 31.49,-209.44 133.85,-238.58 103.15,-28.36 209.46,31.48 238.58,133.85 29.14,103.15 -31.47,209.44 -133.86,238.58 -17.31,4.73 -35.43,7.08 -52.75,7.08 -84.26,0 -161.41,-55.91 -185.82,-140.93z"/>
    <path class="fil3" d="M15835.34 12701.59c0,-107.08 86.6,-192.9 192.89,-192.9 107.08,0 192.9,86.6 192.9,192.9 0,107.06 -86.6,192.89 -192.9,192.89 -106.29,0.81 -192.89,-85.83 -192.89,-192.89z"/>
    <path class="fil3" d="M9288.27 12851.18c-107.09,-1.58 -192.13,-88.98 -190.56,-195.27 1.57,-107.07 88.98,-192.13 195.28,-190.54 107.08,1.57 192.13,88.98 190.56,196.04 -1.58,105.5 -87.41,190.54 -192.91,190.54 -0.02,-0.77 -0.84,-0.77 -2.37,-0.77z"/>
    <path class="fil3" d="M15728.23 11881.92c-27.56,-103.13 33.87,-208.64 137,-236.22 103.16,-27.56 209.45,33.86 236.23,137.02 27.57,103.13 -33.86,208.64 -137,236.23 -16.55,4.72 -33.07,6.3 -49.62,6.3 -85.05,0.78 -162.99,-56.73 -186.61,-143.33z"/>
    <path class="fil3" d="M15371.56 11048.07c-55.92,-91.32 -26.79,-210.22 63.78,-266.14 91.33,-55.91 210.22,-26.77 265.33,63.78 55.92,91.33 26.79,210.22 -63.78,266.14 -31.47,18.89 -66.14,28.36 -100.78,28.36 -64.56,0.81 -128.33,-32.29 -164.55,-92.14z"/>
    <path class="fil3" d="M14792.02 10348.88c-78.74,-71.66 -85.04,-193.7 -13.38,-273.22 71.66,-78.74 193.71,-85.06 273.22,-13.4 78.75,71.66 85.05,193.7 13.39,273.22 -37.8,41.73 -90.55,63.01 -143.29,63.01 -46.45,0 -92.92,-16.51 -129.94,-49.61z"/>
    <path class="fil3" d="M10347.27 10243.38c-68.51,-81.89 -58.26,-203.93 23.64,-272.45 81.89,-68.51 203.93,-58.26 272.45,23.64 68.5,81.89 57.45,203.93 -23.64,272.45 -36.22,30.71 -80.32,44.87 -124.4,44.87 -54.33,0.78 -109.47,-22.82 -148.05,-68.51z"/>
    <path class="fil3" d="M14040.1 9841.03c-96.07,-46.45 -136.2,-162.19 -89.75,-258.24 46.45,-96.06 162.18,-136.21 258.25,-89.76 96.06,46.46 136.2,162.19 89.75,258.25 -33.87,69.29 -102.38,109.46 -174,109.46 -29.14,-0.8 -57.5,-7.12 -84.25,-19.71z"/>
    <path class="fil3" d="M13174.76 9567.81c-105.49,-17.31 -176.39,-116.54 -159.84,-222.03 17.32,-105.49 116.54,-177.15 222.03,-159.83 105.51,17.31 177.17,116.53 159.84,222.02 -15.74,94.5 -97.63,162.19 -190.54,162.19 -11.01,0 -21.26,-0.76 -31.49,-2.35z"/>
    <path class="fil3" d="M12051.18 9382c-13.4,-106.31 62.19,-202.36 168.49,-215.76 106.31,-13.38 202.36,62.2 215.76,168.5 13.39,106.3 -62.2,202.37 -168.5,215.76 -7.89,0.77 -16.54,1.57 -23.62,1.57 -96.87,0 -180.33,-72.46 -192.13,-170.07z"/>
    <path class="fil3" d="M12692.11 14699.18c-11.83,-106.31 64.56,-201.56 170.84,-213.37 106.3,-11.83 201.55,64.56 213.36,170.84 11.81,106.29 -64.58,201.55 -170.85,213.38 -7.07,0.77 -14.96,1.57 -22.05,1.57 -96.84,-0.78 -180.3,-74.02 -191.3,-172.42z"/>
    <path class="fil3" d="M11864.56 14733.82c-99.23,-38.57 -148.84,-151.18 -109.47,-250.4 38.58,-99.21 151.19,-148.83 250.4,-109.46 99.22,38.57 148.83,151.18 109.45,250.41 -29.89,76.35 -103.13,122.83 -180.3,122.83 -22.83,0 -47.23,-4.72 -70.08,-13.38z"/>
    <path class="fil3" d="M13621.2 14452.7c-59.83,-88.17 -37.79,-208.64 50.39,-268.48 88.17,-59.85 208.64,-37.79 268.49,50.39 59.84,88.17 37.8,208.64 -50.38,268.49 -33.07,22.82 -71.66,33.85 -108.66,33.85 -62.19,0 -122.84,-29.12 -159.84,-84.25z"/>
    <path class="fil3" d="M11007.91 14126.76c-70.09,-81.09 -60.62,-203.14 19.66,-272.45 80.32,-70.08 203.14,-60.63 272.45,19.67 70.08,80.32 60.61,203.14 -19.67,272.45 -37.02,31.49 -81.89,47.25 -125.97,47.25 -54.37,0 -107.9,-22.86 -146.47,-66.92z"/>
    <path class="fil3" d="M14327.49 13800.77c-94.5,-49.61 -130.7,-166.92 -80.32,-261.4 50.38,-94.5 166.92,-130.7 261.4,-80.32 94.48,49.6 130.7,166.92 80.32,261.4 -34.64,65.36 -101.56,103.15 -170.85,103.15 -30.71,0 -61.43,-7.08 -90.55,-22.83z"/>
    <path class="fil3" d="M10533.1 13190.55c-23.63,-103.95 40.95,-207.86 145.66,-231.5 103.95,-23.63 207.88,40.95 231.5,145.68 23.63,103.95 -40.95,207.86 -144.86,231.5 -14.98,3.15 -29.15,4.72 -43.3,4.72 -89.02,-0.79 -168.54,-60.64 -189,-150.4z"/>
    <path class="fil3" d="M14454.26 12701.59c0,-107.08 86.6,-192.9 192.91,-192.9 107.06,0 193.7,86.6 193.7,192.9 0,107.06 -86.6,192.89 -193.7,192.89 -106.31,0.81 -192.91,-85.83 -192.91,-192.89z"/>
    <path class="fil3" d="M10688.19 12377.19c-103.13,-27.56 -164.57,-133.06 -137,-236.24 27.56,-103.14 133.05,-164.57 236.23,-137 103.15,27.56 164.56,133.05 137.01,236.22 -22.83,86.61 -100.79,144.1 -186.62,144.1 -16.51,0 -33.07,-2.35 -49.62,-7.08z"/>
    <path class="fil3" d="M14274.72 11917.35c-46.46,-96.07 -7.09,-211.8 88.99,-258.25 96.05,-46.47 211.79,-6.32 258.25,89.75 46.44,96.05 6.3,211.8 -88.98,258.25 -27.56,13.38 -55.92,19.66 -84.25,19.66 -71.64,0.04 -140.95,-40.1 -174.01,-109.41z"/>
    <path class="fil3" d="M11067.72 11494.52c-78.74,-72.43 -83.47,-194.47 -11.01,-273.21 72.44,-77.94 194.48,-82.67 273.22,-11.02 77.93,72.43 83.47,194.47 11.01,273.22 -37.79,40.95 -89.75,62.2 -141.74,62.2 -47.23,0 -93.68,-16.51 -131.48,-51.19z"/>
    <path class="fil3" d="M13721.19 11254.4c-85.82,-63 -104.71,-184.25 -40.93,-270.07 62.99,-85.82 184.23,-104.73 270.05,-40.95 85.83,63.01 104.73,184.25 40.95,270.07 -37.79,51.96 -96.05,78.74 -155.91,78.74 -39.33,-0.81 -79.52,-12.62 -114.16,-37.79z"/>
    <path class="fil3" d="M11815.75 10890.61c-35.44,-100.78 17.31,-211.02 118.11,-246.44 100.8,-35.44 211.02,17.33 246.44,118.13 35.44,100.78 -17.31,211.02 -118.11,246.44 -21.26,7.08 -42.52,11.01 -63.78,11.01 -79.51,0 -154.33,-49.62 -182.66,-129.14z"/>
    <path class="fil3" d="M12922.78 10926.03c-105.49,-15.74 -178.73,-113.39 -162.99,-218.87 15.75,-105.51 114.16,-178.75 219.69,-163 105.49,15.74 178.73,113.39 162.99,219.68 -14.16,96.07 -96.83,165.34 -190.55,165.34 -10.23,-1.58 -19.67,-2.35 -29.14,-3.15z"/>
    <path class="fil3" d="M12644.08 13502.35c-107.09,-1.58 -191.33,-90.57 -189.76,-196.86 1.58,-107.08 90.57,-191.32 196.86,-189.75 107.07,2.36 191.32,90.55 189.74,196.85 -1.57,105.51 -88.17,189.76 -192.89,189.76 -1.6,0 -3.19,0 -3.95,0z"/>
    <path class="fil3" d="M13073.96 12701.59c0,-107.08 86.6,-192.9 192.91,-192.9 107.06,0 192.9,86.6 192.9,192.9 0,107.06 -86.6,192.89 -192.9,192.89 -106.27,0.81 -192.91,-85.83 -192.91,-192.89z"/>
    <path class="fil3" d="M12044.86 12870.88c-106.29,-3.93 -189.74,-93.71 -185.81,-200.78 3.93,-106.3 93.72,-189.75 200.78,-185.82 106.31,3.93 189.76,93.72 185.83,200.8 -3.93,103.93 -89.77,185.8 -192.9,185.8 -2.38,0 -4.73,0 -7.9,0z"/>
    <path class="fil3" d="M12684.21 12288.2c-106.29,-6.3 -188.2,-97.63 -181.88,-203.93 6.3,-106.31 97.63,-188.21 203.92,-181.9 106.31,6.32 188.21,97.65 181.9,203.95 -5.5,103.14 -91.34,181.88 -192.89,181.88 -3.97,0 -7.08,0 -11.05,0z"/>
   </g>
  </g>
  <path class="fil4" d="M3523.96 14990.07l913.51 0 0 -4580.15 -913.51 0 0 4580.15zm1291.51 0l844.21 0 0 -1908.92 491.41 1908.92 938.71 0 0 -4580.15 -938.71 0 0 1845.92 -466.21 -1845.92 -869.41 0 0 4580.15zm2652.33 -611.11c0,409.51 201.6,611.11 611.11,611.11l1694.72 0 0 -2633.43 -888.31 0 0 1801.82 -415.81 0c-63,0 -81.9,-31.5 -81.9,-88.2l0 -2721.63c0,-56.7 18.9,-88.2 81.9,-88.2l1001.71 0 -157.5 -850.51 -1234.81 0c-409.51,0 -611.11,201.6 -611.11,611.11l0 3357.93zm2664.93 611.11l1701.02 0 157.5 -850.51 -919.81 0 0 -3729.64 -938.71 0 0 4580.15zm3811.54 0c522.91,0 693.01,-182.7 693.01,-686.71l0 -3893.44 -932.41 0 0 3679.24c0,69.3 -12.6,100.8 -88.2,100.8l-321.31 0c-75.6,0 -88.2,-31.5 -88.2,-100.8l0 -3679.24 -932.41 0 0 3893.44c0,504.01 170.1,686.71 693.01,686.71l976.51 0zm2803.53 0l163.8 -850.51 -875.71 0c-63,0 -81.9,-31.5 -81.9,-88.2l0 -2702.73c0,-56.7 18.9,-88.2 81.9,-88.2l875.71 0 -157.5 -850.51 -1184.41 0c-308.71,0 -554.41,201.6 -554.41,560.71l0 3326.43c0,504.01 176.4,693.01 699.31,693.01l1033.21 0zm1978.22 -567.01l81.9 567.01 919.81 0 -825.31 -4580.15 -976.51 0 -825.31 4580.15 919.81 0 81.9 -567.01 623.71 0zm-308.7 -2356.22l207.9 1631.72 -422.11 0 214.21 -1631.72zm2847.63 2923.23c409.5,0 611.1,-201.6 611.1,-611.11l0 -1587.61c0,-340.21 -163.8,-466.21 -453.6,-466.21l-573.31 0c-94.5,0 -138.6,-25.2 -138.6,-119.7l0 -844.21c0,-69.3 37.8,-100.8 113.4,-100.8l1033.21 0 -157.5 -850.51 -1266.31 0c-428.41,0 -611.11,233.1 -611.11,592.21l0 1562.41c0,453.61 239.4,516.61 510.31,516.61l472.5 0c126,0 170.1,6.3 170.1,132.3l0 831.61c0,69.3 -25.2,94.5 -107.1,94.5l-982.81 0 163.8 850.51 1215.92 0z"/>
 </g>
</svg>
