<?xml version="1.0" encoding="UTF-8"?>
<!DOCTYPE svg PUBLIC "-//W3C//DTD SVG 1.1//EN" "http://www.w3.org/Graphics/SVG/1.1/DTD/svg11.dtd">
<!-- Creator: CorelDRAW (Versión OEM) -->
<svg xmlns="http://www.w3.org/2000/svg" xml:space="preserve" width="254mm" height="254mm" version="1.1" style="shape-rendering:geometricPrecision; text-rendering:geometricPrecision; image-rendering:optimizeQuality; fill-rule:evenodd; clip-rule:evenodd"
viewBox="0 0 25400 25400"
 xmlns:xlink="http://www.w3.org/1999/xlink"
 xmlns:xodm="http://www.corel.com/coreldraw/odm/2003">
 <defs>
  <style type="text/css">
   <![CDATA[
    .fil0 {fill:#6CBFEB;fill-rule:nonzero}
   ]]>
  </style>
 </defs>
 <g id="Capa_x0020_1">
  <metadata id="CorelCorpID_0Corel-Layer"/>
  <path class="fil0" d="M18356.4 17739.15l-10108.68 0c-19.33,0 -35.26,-15.93 -35.26,-35.19l0 -6607.25 5083.03 3758.05 5096.1 -3655.42 0 6504.62c0,19.26 -15.61,35.19 -35.19,35.19zm-1026.05 -7634.41l-4021.47 2884.39 -3901.49 -2884.39 7922.96 0zm1026.05 -1508.06l-10108.68 0c-851.06,0 -1543.31,692.25 -1543.31,1543.32l0 7563.96c0,850.99 692.25,1543.24 1543.31,1543.24l10108.68 0c850.99,0 1543.56,-692.25 1543.56,-1543.24l0 -7563.96c0,-851.07 -692.57,-1543.32 -1543.56,-1543.32z"/>
 </g>
</svg>
