<?xml version="1.0" encoding="UTF-8"?>
<!DOCTYPE svg PUBLIC "-//W3C//DTD SVG 1.1//EN" "http://www.w3.org/Graphics/SVG/1.1/DTD/svg11.dtd">
<!-- Creator: CorelDRAW (Versión OEM) -->
<svg xmlns="http://www.w3.org/2000/svg" xml:space="preserve" width="254mm" height="254mm" version="1.1" style="shape-rendering:geometricPrecision; text-rendering:geometricPrecision; image-rendering:optimizeQuality; fill-rule:evenodd; clip-rule:evenodd"
viewBox="0 0 25400 25400"
 xmlns:xlink="http://www.w3.org/1999/xlink"
 xmlns:xodm="http://www.corel.com/coreldraw/odm/2003">
 <defs>
  <style type="text/css">
   <![CDATA[
    .fil0 {fill:url(#id0);fill-rule:nonzero}
   ]]>
  </style>
  <linearGradient id="id0" gradientUnits="userSpaceOnUse" x1="12700.03" y1="4685.47" x2="12700.03" y2="21733.07">
   <stop offset="0" style="stop-opacity:1; stop-color:#8EFDED"/>
   <stop offset="0.580392" style="stop-opacity:1; stop-color:#63B0EB"/>
   <stop offset="1" style="stop-opacity:1; stop-color:#3862E9"/>
  </linearGradient>
 </defs>
 <g id="Capa_x0020_1">
  <metadata id="CorelCorpID_0Corel-Layer"/>
  <path class="fil0" d="M15583.77 19035.06c-2.01,0.61 2,-0.61 0,0 0,-946.3 -0.09,-1876.42 0,-2806.45 0.08,-370.94 -50.14,-733.17 -181.21,-1082.34 -97.65,-260.05 -237.77,-492.61 -461.7,-701.4 322.28,-57 624.72,-103.39 923.93,-164.92 453.1,-93.04 890.35,-235.86 1305.15,-444.22 795.13,-399.22 1389.47,-996.09 1715.24,-1825.94 454.04,-1156.84 567.36,-2345.27 220.45,-3554.5 -130.46,-454.58 -361.45,-861.28 -668.32,-1221.25 -69.2,-81.29 -80.86,-143.43 -46.65,-247.52 257.44,-784.68 144.03,-1549.79 -137.25,-2304.8 -34.64,-92.95 -99.22,-99.13 -176.33,-100.61 -349.27,-6.87 -678.68,85.9 -1001.66,204.53 -475.81,174.67 -920.2,413.23 -1346.75,685.03 -94.34,60.14 -176.06,79.9 -292.25,49.53 -1315.5,-344.04 -2646.05,-349 -3970.08,-88.43 -466.32,91.82 -844.05,70.93 -1251.27,-201.22 -491.91,-328.63 -1048.74,-545.35 -1644.74,-634.03 -97.39,-14.54 -172.15,-24.72 -231.42,-26.2l-182.6 65.01c-45.43,54.31 -77.63,147.35 -124.54,297.74 -217.58,696.96 -231.34,1399.05 -38.99,2102.63 28.28,103.65 14.27,171.28 -54.05,251.69 -580.94,684.17 -850.57,1482.78 -863.71,2374.86 -10.45,709.49 57.87,1408.54 282.24,2085.13 447.87,1350.92 1420.55,2125.78 2757.29,2496.97 419.84,116.54 847.61,193.04 1315.84,244.13 -130.2,142.29 -242.91,263.36 -324.45,407.48 -127.51,225.5 -209.67,467.11 -238.56,722.81 -11.66,103.83 -54.74,150.48 -145.35,187.29 -1098.96,447.18 -2070.76,139.26 -2706.8,-859.18 -301.39,-473.2 -711.32,-796.61 -1271.37,-908.01 -173.72,-34.47 -348.31,-39.17 -517.32,22.45 -147.96,53.96 -174.24,147.61 -79.99,274.67 67.54,91.22 154.83,164.32 250.57,222.81 551.27,336.73 899.13,841.69 1142.3,1419.94 373.2,886.95 1062.67,1300.35 1987.92,1376.33 418.97,34.38 834.55,-9.75 1253.27,-104.87 0,577.02 -10.36,1217.32 -10.36,1785.04 0,0 28.11,1794.44 2388.52,1794.44 2360.42,0 2425,-1794.62 2425,-1794.62z"/>
 </g>
</svg>
