<?xml version="1.0" encoding="UTF-8"?>
<!DOCTYPE svg PUBLIC "-//W3C//DTD SVG 1.1//EN" "http://www.w3.org/Graphics/SVG/1.1/DTD/svg11.dtd">
<!-- Creator: CorelDRAW (Versión OEM) -->
<svg xmlns="http://www.w3.org/2000/svg" xml:space="preserve" width="254mm" height="254mm" version="1.1" style="shape-rendering:geometricPrecision; text-rendering:geometricPrecision; image-rendering:optimizeQuality; fill-rule:evenodd; clip-rule:evenodd"
viewBox="0 0 25400 25400"
 xmlns:xlink="http://www.w3.org/1999/xlink"
 xmlns:xodm="http://www.corel.com/coreldraw/odm/2003">
 <defs>
  <style type="text/css">
   <![CDATA[
    .fil2 {fill:url(#id0);fill-rule:nonzero}
    .fil0 {fill:url(#id1);fill-rule:nonzero}
    .fil1 {fill:url(#id2);fill-rule:nonzero}
   ]]>
  </style>
  <linearGradient id="id0" gradientUnits="userSpaceOnUse" x1="15870.22" y1="5174.08" x2="15870.22" y2="22888.36">
   <stop offset="0" style="stop-opacity:1; stop-color:#8EFDED"/>
   <stop offset="0.580392" style="stop-opacity:1; stop-color:#63B0EB"/>
   <stop offset="1" style="stop-opacity:1; stop-color:#3862E9"/>
  </linearGradient>
  <linearGradient id="id1" gradientUnits="userSpaceOnUse" xlink:href="#id0" x1="12699.97" y1="5174.77" x2="12699.97" y2="22885.48">
  </linearGradient>
  <linearGradient id="id2" gradientUnits="userSpaceOnUse" xlink:href="#id0" x1="12696.23" y1="5174.69" x2="12696.23" y2="22885.74">
  </linearGradient>
 </defs>
 <g id="Capa_x0020_1">
  <metadata id="CorelCorpID_0Corel-Layer"/>
  <g id="_2243012931680">
   <g>
    <path class="fil0" d="M12910.41 18658.31c-874.07,0 -1469.37,15.58 -2063.45,-4.62 -532.9,-18.1 -1070.16,-17.49 -1592.96,-151.69 -673.2,-172.76 -1254.06,-495.04 -1704.1,-1037.08 -441.26,-531.43 -661.62,-1149.88 -736.99,-1826.91 -56.75,-508.96 -76.94,-1020.19 -77.29,-1532.21 -0.61,-1007.75 -6.53,-2015.67 2.52,-3023.34 4.53,-501.39 17.76,-1004.09 95.04,-1501.31 142.48,-917.93 563.63,-1672.25 1336.04,-2205.84 465.37,-321.5 991.3,-496.18 1552.06,-555.36 1212.1,-127.94 2428.99,-68.23 3643.88,-80.42 518.71,-5.13 1037.43,-2.35 1555.62,21.76 551.53,25.59 1099.66,68.24 1624.73,266.41 575.63,217.32 1049.09,565.28 1414.28,1059.53 392.51,531.34 586.07,1138.3 635.16,1787.92 116.8,1547.18 57.01,3097.49 53.61,4646.41 -1.04,473.8 -16.62,951.18 -109.83,1420.2 -136.64,687.9 -422.46,1295.04 -940.04,1784.34 -419.93,396.96 -915.32,642.48 -1472.07,775.72 -338.38,80.94 -682.08,104.27 -1028.99,125.59 -822.11,50.39 -1644.39,21.24 -2187.22,30.9zm4649.11 -5957.21l0 0c1.83,-733.43 11.41,-1467.03 -20.8,-2199.93 -16.01,-366.06 -35.07,-732.47 -140.47,-1087.82 -109.4,-368.76 -292.43,-690.17 -577.37,-953.7 -398.52,-368.76 -886.26,-513.58 -1408.63,-563.71 -559.18,-53.7 -1121.32,-55.01 -1682.51,-57.88 -957.97,-4.87 -1916.2,-12.27 -2874.08,14.71 -382.86,10.7 -766.15,17.4 -1145,81.03 -543.78,91.38 -1010.89,323.15 -1356.49,765.36 -302.09,386.43 -417.67,840.56 -465.19,1317.76 -45.96,460.58 -47.44,923.59 -52.74,1385.3 -13.41,1159.45 -17.24,2319.33 17.4,3478.61 10.01,335.77 32.38,671.8 112.97,1001.92 113.75,465.54 344.39,856.23 717.41,1156.75 350.65,282.51 767.45,409.23 1205.23,463.88 452.48,56.58 909.49,58.49 1364.58,60.75 1186,6.18 2372.17,19.93 3557.99,-16.79 303.74,-9.4 607.05,-25.59 906.27,-82.08 472.5,-89.12 892.78,-277.8 1223.94,-640.47 285.9,-313.14 438.21,-687.47 517.84,-1096.35 95.39,-489.3 82.07,-986.69 96.35,-1480.95 14.88,-515.06 3.3,-1030.9 3.3,-1546.39z"/>
    <path class="fil1" d="M12681.95 15767.52c-1662.84,10.7 -3067.38,-1365.89 -3055.63,-3090.18 11.58,-1686.7 1381.12,-3046.15 3085.57,-3044.23 1687.48,1.83 3047.71,1375.46 3054.33,3064.68 6.7,1693.92 -1380.95,3094.62 -3084.27,3069.73zm16.19 -1096.35l0 0c1084.34,-1.22 1971.2,-884.86 1965.72,-1969.38 -5.48,-1096 -863.71,-1958.75 -1967.2,-1967.54 -1084.25,-8.62 -1978.69,891.56 -1967.2,1979.29 11.58,1091.83 878.07,1947.53 1968.68,1957.63z"/>
    <path class="fil2" d="M16596.51 9527.8c-0.18,401.92 -322.2,726.37 -720.46,726.02 -398.43,-0.43 -733.95,-330.89 -732.12,-721.32 1.83,-408.62 324.63,-733.51 727.42,-732.12 415.32,1.31 725.33,312.27 725.16,727.42z"/>
   </g>
  </g>
 </g>
</svg>
